<svg xmlns="http://www.w3.org/2000/svg" xmlns:xlink="http://www.w3.org/1999/xlink" width="500" zoomAndPan="magnify" viewBox="0 0 375 374.999991" height="500" preserveAspectRatio="xMidYMid meet" version="1.0"><defs><clipPath id="96ac160f64"><path d="M 80.101562 106.164062 L 294.601562 106.164062 L 294.601562 268.832031 L 80.101562 268.832031 Z M 80.101562 106.164062 " clip-rule="nonzero"/></clipPath><clipPath id="7e381cc68a"><path d="M 81.507812 186.285156 L 213.503906 186.285156 L 213.503906 267.285156 L 81.507812 267.285156 Z M 81.507812 186.285156 " clip-rule="nonzero"/></clipPath><clipPath id="17d7b90c52"><path d="M 81.507812 108.042969 L 213.503906 108.042969 L 213.503906 189.042969 L 81.507812 189.042969 Z M 81.507812 108.042969 " clip-rule="nonzero"/></clipPath><clipPath id="20d239e17b"><path d="M 210.742188 108.039062 L 293.242188 108.039062 L 293.242188 189.039062 L 210.742188 189.039062 Z M 210.742188 108.039062 " clip-rule="nonzero"/></clipPath><clipPath id="353cd28581"><path d="M 210.742188 186.285156 L 293.242188 186.285156 L 293.242188 267.285156 L 210.742188 267.285156 Z M 210.742188 186.285156 " clip-rule="nonzero"/></clipPath><clipPath id="df4ee09a53"><path d="M 126 146 L 168 146 L 168 172.34375 L 126 172.34375 Z M 126 146 " clip-rule="nonzero"/></clipPath><clipPath id="baa5f29ecb"><path d="M 120.738281 122.84375 L 173.988281 122.84375 L 173.988281 145 L 120.738281 145 Z M 120.738281 122.84375 " clip-rule="nonzero"/></clipPath><clipPath id="633bb93f7a"><path d="M 229.621094 204.75 L 274.621094 204.75 L 274.621094 248.242188 L 229.621094 248.242188 Z M 229.621094 204.75 " clip-rule="nonzero"/></clipPath></defs><g clip-path="url(#96ac160f64)"><path stroke-linecap="butt" transform="matrix(0, -0.75, 0.75, 0, 80.10197, 268.831917)" fill="none" stroke-linejoin="miter" d="M -0.000152671 -0.000542853 L 216.890487 -0.000542853 L 216.890487 286.390101 L -0.000152671 286.390101 Z M -0.000152671 -0.000542853 " stroke="#000000" stroke-width="4" stroke-opacity="1" stroke-miterlimit="4"/></g><g clip-path="url(#7e381cc68a)"><path stroke-linecap="butt" transform="matrix(0, -0.75, 0.75, 0, 81.509764, 267.285218)" fill="none" stroke-linejoin="miter" d="M 0.0000818644 -0.00260193 L 108.437582 -0.00260193 L 108.437582 176.044273 L 0.0000818644 176.044273 Z M 0.0000818644 -0.00260193 " stroke="#000000" stroke-width="12" stroke-opacity="1" stroke-miterlimit="4"/></g><g clip-path="url(#17d7b90c52)"><path stroke-linecap="butt" transform="matrix(0, -0.75, 0.75, 0, 81.509764, 189.042556)" fill="none" stroke-linejoin="miter" d="M -0.000549818 -0.00260193 L 108.43695 -0.00260193 L 108.43695 176.044273 L -0.000549818 176.044273 Z M -0.000549818 -0.00260193 " stroke="#000000" stroke-width="12" stroke-opacity="1" stroke-miterlimit="4"/></g><g clip-path="url(#20d239e17b)"><path stroke-linecap="butt" transform="matrix(0, -0.75, 0.75, 0, 210.742755, 189.040828)" fill="none" stroke-linejoin="miter" d="M 0.00235452 -0.000756215 L 108.439855 -0.000756215 L 108.439855 110.322161 L 0.00235452 110.322161 Z M 0.00235452 -0.000756215 " stroke="#000000" stroke-width="12" stroke-opacity="1" stroke-miterlimit="4"/></g><g clip-path="url(#353cd28581)"><path stroke-linecap="butt" transform="matrix(0, -0.75, 0.75, 0, 210.742755, 267.283487)" fill="none" stroke-linejoin="miter" d="M -0.00222534 -0.000756215 L 108.435275 -0.000756215 L 108.435275 110.322161 L -0.00222534 110.322161 Z M -0.00222534 -0.000756215 " stroke="#000000" stroke-width="12" stroke-opacity="1" stroke-miterlimit="4"/></g><g clip-path="url(#df4ee09a53)"><path fill="#000000" d="M 166.660156 172.351562 L 128.042969 172.351562 C 127.460938 172.351562 126.988281 171.875 126.988281 171.289062 L 126.988281 147.101562 C 126.988281 146.515625 127.460938 146.039062 128.042969 146.039062 C 128.628906 146.039062 129.101562 146.515625 129.101562 147.101562 L 129.101562 170.226562 L 165.605469 170.226562 L 165.605469 147.101562 C 165.605469 146.515625 166.078125 146.039062 166.660156 146.039062 C 167.246094 146.039062 167.71875 146.515625 167.71875 147.101562 L 167.71875 171.289062 C 167.71875 171.875 167.246094 172.351562 166.660156 172.351562 " fill-opacity="1" fill-rule="nonzero"/></g><g clip-path="url(#baa5f29ecb)"><path fill="#000000" d="M 172.71875 144.835938 C 172.492188 144.835938 172.261719 144.765625 172.070312 144.613281 L 147.351562 125.332031 L 122.636719 144.613281 C 122.171875 144.972656 121.511719 144.890625 121.152344 144.425781 C 120.792969 143.960938 120.878906 143.296875 121.339844 142.9375 L 146.703125 123.148438 C 147.085938 122.851562 147.617188 122.851562 148 123.148438 L 173.367188 142.9375 C 173.828125 143.296875 173.910156 143.960938 173.554688 144.425781 C 173.347656 144.695312 173.03125 144.835938 172.71875 144.835938 " fill-opacity="1" fill-rule="nonzero"/></g><g clip-path="url(#633bb93f7a)"><path fill="#231f20" d="M 256.230469 233.324219 C 254.429688 234.25 252.636719 234.496094 251.003906 234.214844 C 251 234.214844 250.996094 234.214844 250.992188 234.214844 C 250.25 234.097656 249.574219 233.867188 248.886719 233.507812 C 248.644531 233.363281 248.40625 233.265625 248.164062 233.167969 C 247.929688 233.074219 247.675781 233.191406 247.550781 233.292969 C 247.4375 233.339844 247.324219 233.378906 247.210938 233.417969 C 247.054688 233.472656 246.902344 233.527344 246.75 233.59375 C 244.121094 234.421875 241.59375 234.855469 239.425781 234.359375 C 237.941406 234.019531 236.847656 233.429688 236.007812 232.960938 C 232.238281 230.449219 230.058594 226.589844 230.8125 221.722656 C 231.492188 217.316406 235.371094 214.332031 241.191406 212.628906 C 241.347656 212.582031 241.472656 212.464844 241.53125 212.3125 C 243.183594 207.929688 246.289062 205.78125 250.988281 205.78125 C 251.589844 205.78125 252.222656 205.816406 252.878906 205.886719 C 253.621094 205.988281 254.253906 206.039062 254.898438 206.179688 C 259.617188 207.214844 262.277344 210.34375 262.863281 216.738281 C 262.875 216.886719 262.949219 217.019531 263.066406 217.105469 C 263.183594 217.195312 263.335938 217.226562 263.476562 217.203125 C 267.394531 216.460938 270.105469 217.402344 271.78125 220.082031 C 272.371094 220.945312 272.828125 222.058594 273.175781 223.484375 C 273.386719 224.351562 273.511719 225.175781 273.554688 225.9375 C 273.839844 230.304688 271.621094 232.746094 266.84375 233.390625 C 266.789062 233.390625 266.664062 233.390625 266.53125 233.4375 C 264.566406 233.535156 263.09375 233.054688 262.027344 231.957031 C 261.542969 231.4375 261.046875 230.695312 260.554688 229.75 C 260.460938 229.574219 260.273438 229.472656 260.074219 229.472656 C 259.871094 229.480469 259.691406 229.601562 259.613281 229.785156 C 259.101562 230.957031 258.328125 231.933594 257.476562 232.582031 C 257.144531 232.835938 256.554688 233.15625 256.230469 233.324219 Z M 251.910156 235.347656 C 252.894531 235.386719 253.894531 235.242188 254.917969 234.929688 L 252.980469 237.089844 Z M 255.242188 238.683594 C 255.148438 238.789062 255.101562 238.925781 255.113281 239.066406 L 255.71875 247.203125 L 250.609375 247.203125 L 250.609375 238.554688 C 250.609375 238.449219 250.578125 238.34375 250.515625 238.257812 L 247.742188 234.328125 C 247.832031 234.296875 247.921875 234.261719 248.011719 234.226562 C 248.125 234.273438 248.246094 234.332031 248.375 234.410156 C 249.113281 234.796875 249.828125 235.050781 250.59375 235.195312 L 252.460938 238.222656 C 252.546875 238.363281 252.695312 238.453125 252.859375 238.46875 C 253.03125 238.480469 253.183594 238.417969 253.292969 238.296875 L 257.183594 234.003906 C 257.417969 233.84375 257.699219 233.664062 258.019531 233.460938 C 258.894531 232.917969 259.5625 232.042969 260.113281 231.09375 C 260.394531 231.554688 260.675781 231.960938 260.957031 232.308594 Z M 274.59375 225.875 C 274.550781 225.054688 274.414062 224.171875 274.191406 223.242188 C 273.8125 221.691406 273.304688 220.46875 272.65625 219.519531 C 270.84375 216.621094 267.878906 215.46875 263.84375 216.089844 C 263.105469 209.582031 260.128906 206.355469 255.179688 205.234375 C 254.570312 205.09375 253.828125 204.96875 253.003906 204.859375 C 246.871094 204.199219 242.710938 206.5 240.648438 211.707031 C 234.597656 213.539062 230.53125 216.746094 229.785156 221.566406 C 228.960938 226.914062 231.324219 231.089844 235.460938 233.839844 C 236.398438 234.367188 237.554688 234.992188 239.191406 235.367188 C 241.5 235.894531 244.066406 235.476562 246.722656 234.6875 L 249.570312 238.71875 L 249.570312 247.722656 C 249.570312 248.007812 249.800781 248.242188 250.089844 248.242188 L 256.28125 248.242188 C 256.425781 248.242188 256.5625 248.179688 256.664062 248.074219 C 256.761719 247.96875 256.8125 247.828125 256.800781 247.683594 L 256.167969 239.210938 L 261.683594 233.054688 C 262.941406 234.121094 264.632812 234.59375 266.703125 234.46875 C 266.765625 234.464844 266.828125 234.449219 266.886719 234.421875 C 266.890625 234.421875 266.898438 234.421875 266.914062 234.421875 C 272.332031 233.695312 274.917969 230.820312 274.59375 225.875 " fill-opacity="1" fill-rule="nonzero"/></g></svg>