<svg xmlns="http://www.w3.org/2000/svg" xmlns:xlink="http://www.w3.org/1999/xlink" width="500" zoomAndPan="magnify" viewBox="0 0 375 374.999991" height="500" preserveAspectRatio="xMidYMid meet" version="1.0"><defs><clipPath id="6c954509c0"><path d="M 42.011719 42.011719 L 333.011719 42.011719 L 333.011719 333.011719 L 42.011719 333.011719 Z M 42.011719 42.011719 " clip-rule="nonzero"/></clipPath><clipPath id="dcc8f5c5dc"><path d="M 191.984375 99.488281 L 323.988281 99.488281 L 323.988281 207.53125 L 191.984375 207.53125 Z M 191.984375 99.488281 " clip-rule="nonzero"/></clipPath><clipPath id="4b8e4f50f3"><path d="M 216.027344 127 L 275 127 L 275 199.222656 L 216.027344 199.222656 Z M 216.027344 127 " clip-rule="nonzero"/></clipPath><clipPath id="2d3b266690"><path d="M 242 108 L 300.777344 108 L 300.777344 199.222656 L 242 199.222656 Z M 242 108 " clip-rule="nonzero"/></clipPath><clipPath id="ed890f0d82"><path d="M 241 156 L 275 156 L 275 199.222656 L 241 199.222656 Z M 241 156 " clip-rule="nonzero"/></clipPath></defs><g clip-path="url(#6c954509c0)"><path fill="#000000" d="M 308.761719 42.011719 L 66.261719 42.011719 C 65.46875 42.015625 64.675781 42.054688 63.886719 42.132812 C 63.097656 42.210938 62.3125 42.328125 61.535156 42.484375 C 60.757812 42.640625 59.988281 42.832031 59.226562 43.0625 C 58.46875 43.296875 57.722656 43.5625 56.988281 43.867188 C 56.253906 44.171875 55.539062 44.511719 54.835938 44.886719 C 54.136719 45.261719 53.457031 45.667969 52.796875 46.109375 C 52.136719 46.550781 51.5 47.023438 50.886719 47.527344 C 50.273438 48.03125 49.6875 48.5625 49.125 49.125 C 48.5625 49.6875 48.03125 50.273438 47.527344 50.886719 C 47.023438 51.5 46.550781 52.136719 46.109375 52.796875 C 45.667969 53.457031 45.261719 54.136719 44.886719 54.835938 C 44.511719 55.539062 44.171875 56.253906 43.867188 56.988281 C 43.5625 57.722656 43.296875 58.46875 43.0625 59.226562 C 42.832031 59.988281 42.640625 60.757812 42.484375 61.535156 C 42.328125 62.3125 42.210938 63.097656 42.132812 63.886719 C 42.054688 64.675781 42.015625 65.46875 42.011719 66.261719 L 42.011719 308.761719 C 42.015625 309.558594 42.054688 310.347656 42.132812 311.140625 C 42.210938 311.929688 42.328125 312.714844 42.484375 313.492188 C 42.640625 314.269531 42.832031 315.039062 43.0625 315.800781 C 43.296875 316.558594 43.5625 317.304688 43.867188 318.039062 C 44.171875 318.773438 44.511719 319.488281 44.886719 320.1875 C 45.261719 320.890625 45.667969 321.570312 46.109375 322.230469 C 46.550781 322.890625 47.023438 323.527344 47.527344 324.140625 C 48.03125 324.753906 48.5625 325.339844 49.125 325.902344 C 49.6875 326.464844 50.273438 326.996094 50.886719 327.5 C 51.5 328.003906 52.136719 328.476562 52.796875 328.917969 C 53.457031 329.359375 54.136719 329.765625 54.835938 330.140625 C 55.539062 330.515625 56.253906 330.855469 56.988281 331.160156 C 57.722656 331.464844 58.46875 331.730469 59.226562 331.960938 C 59.988281 332.195312 60.757812 332.386719 61.535156 332.542969 C 62.3125 332.699219 63.097656 332.816406 63.886719 332.894531 C 64.675781 332.972656 65.46875 333.011719 66.261719 333.011719 L 308.761719 333.011719 C 309.558594 333.011719 310.347656 332.972656 311.140625 332.894531 C 311.929688 332.816406 312.714844 332.699219 313.492188 332.542969 C 314.269531 332.386719 315.039062 332.195312 315.800781 331.960938 C 316.558594 331.730469 317.304688 331.464844 318.039062 331.160156 C 318.773438 330.855469 319.488281 330.515625 320.1875 330.140625 C 320.890625 329.765625 321.570312 329.359375 322.230469 328.917969 C 322.890625 328.476562 323.527344 328.003906 324.140625 327.5 C 324.753906 326.996094 325.339844 326.464844 325.902344 325.902344 C 326.464844 325.339844 326.996094 324.753906 327.5 324.140625 C 328.003906 323.527344 328.476562 322.890625 328.917969 322.230469 C 329.359375 321.570312 329.765625 320.890625 330.140625 320.1875 C 330.515625 319.488281 330.855469 318.773438 331.160156 318.039062 C 331.464844 317.304688 331.730469 316.558594 331.960938 315.800781 C 332.195312 315.039062 332.386719 314.269531 332.542969 313.492188 C 332.699219 312.714844 332.816406 311.929688 332.894531 311.140625 C 332.972656 310.347656 333.011719 309.558594 333.011719 308.761719 L 333.011719 66.261719 C 333.011719 65.46875 332.972656 64.675781 332.894531 63.886719 C 332.816406 63.097656 332.699219 62.3125 332.542969 61.535156 C 332.386719 60.757812 332.195312 59.988281 331.960938 59.226562 C 331.730469 58.46875 331.464844 57.722656 331.160156 56.988281 C 330.855469 56.253906 330.515625 55.539062 330.140625 54.835938 C 329.765625 54.136719 329.359375 53.457031 328.917969 52.796875 C 328.476562 52.136719 328.003906 51.5 327.5 50.886719 C 326.996094 50.273438 326.464844 49.6875 325.902344 49.125 C 325.339844 48.5625 324.753906 48.03125 324.140625 47.527344 C 323.527344 47.023438 322.890625 46.550781 322.230469 46.109375 C 321.570312 45.667969 320.890625 45.261719 320.1875 44.886719 C 319.488281 44.511719 318.773438 44.171875 318.039062 43.867188 C 317.304688 43.5625 316.558594 43.296875 315.800781 43.0625 C 315.039062 42.832031 314.269531 42.640625 313.492188 42.484375 C 312.714844 42.328125 311.929688 42.210938 311.140625 42.132812 C 310.347656 42.054688 309.558594 42.015625 308.761719 42.011719 Z M 182.664062 100.214844 L 182.664062 129.3125 L 124.464844 129.3125 L 124.464844 100.214844 Z M 250.5625 100.214844 L 250.5625 129.3125 L 192.363281 129.3125 L 192.363281 100.214844 Z M 323.3125 100.214844 L 323.3125 129.3125 L 260.261719 129.3125 L 260.261719 100.214844 Z M 323.3125 168.113281 L 260.261719 168.113281 L 260.261719 139.011719 L 323.3125 139.011719 Z M 323.3125 206.914062 L 260.261719 206.914062 L 260.261719 177.8125 L 323.3125 177.8125 Z M 323.3125 245.714844 L 260.261719 245.714844 L 260.261719 216.613281 L 323.3125 216.613281 Z M 51.714844 216.613281 L 114.761719 216.613281 L 114.761719 245.714844 L 51.714844 245.714844 Z M 51.714844 177.8125 L 114.761719 177.8125 L 114.761719 206.914062 L 51.714844 206.914062 Z M 51.714844 139.011719 L 114.761719 139.011719 L 114.761719 168.113281 L 51.714844 168.113281 Z M 192.363281 177.8125 L 250.5625 177.8125 L 250.5625 206.914062 L 192.363281 206.914062 Z M 182.664062 206.914062 L 124.464844 206.914062 L 124.464844 177.8125 L 182.664062 177.8125 Z M 192.363281 168.113281 L 192.363281 139.011719 L 250.5625 139.011719 L 250.5625 168.113281 Z M 182.664062 168.113281 L 124.464844 168.113281 L 124.464844 139.011719 L 182.664062 139.011719 Z M 124.464844 216.613281 L 182.664062 216.613281 L 182.664062 245.714844 L 124.464844 245.714844 Z M 192.363281 216.613281 L 250.5625 216.613281 L 250.5625 245.714844 L 192.363281 245.714844 Z M 114.761719 129.3125 L 51.714844 129.3125 L 51.714844 100.214844 L 114.761719 100.214844 Z M 51.714844 255.414062 L 114.761719 255.414062 L 114.761719 284.511719 L 51.714844 284.511719 Z M 124.464844 255.414062 L 182.664062 255.414062 L 182.664062 284.511719 L 124.464844 284.511719 Z M 182.664062 294.214844 L 182.664062 323.3125 L 124.464844 323.3125 L 124.464844 294.214844 Z M 192.363281 294.214844 L 250.5625 294.214844 L 250.5625 323.3125 L 192.363281 323.3125 Z M 192.363281 284.511719 L 192.363281 255.414062 L 250.5625 255.414062 L 250.5625 284.511719 Z M 260.261719 255.414062 L 323.3125 255.414062 L 323.3125 284.511719 L 260.261719 284.511719 Z M 51.714844 66.261719 C 51.714844 65.308594 51.804688 64.363281 51.992188 63.425781 C 52.179688 62.488281 52.457031 61.578125 52.820312 60.695312 C 53.1875 59.8125 53.632812 58.972656 54.164062 58.179688 C 54.695312 57.386719 55.300781 56.652344 55.976562 55.976562 C 56.652344 55.300781 57.386719 54.695312 58.179688 54.164062 C 58.972656 53.632812 59.8125 53.1875 60.695312 52.820312 C 61.578125 52.457031 62.488281 52.179688 63.425781 51.992188 C 64.363281 51.804688 65.308594 51.714844 66.261719 51.714844 L 308.761719 51.714844 C 309.71875 51.714844 310.664062 51.804688 311.601562 51.992188 C 312.539062 52.179688 313.449219 52.457031 314.332031 52.820312 C 315.214844 53.1875 316.050781 53.632812 316.847656 54.164062 C 317.640625 54.695312 318.375 55.300781 319.050781 55.976562 C 319.726562 56.652344 320.332031 57.386719 320.859375 58.179688 C 321.390625 58.972656 321.839844 59.8125 322.207031 60.695312 C 322.570312 61.578125 322.847656 62.488281 323.035156 63.425781 C 323.21875 64.363281 323.3125 65.308594 323.3125 66.261719 L 323.3125 90.511719 L 51.714844 90.511719 Z M 51.714844 308.761719 L 51.714844 294.214844 L 114.761719 294.214844 L 114.761719 323.3125 L 66.261719 323.3125 C 65.308594 323.3125 64.363281 323.21875 63.425781 323.035156 C 62.488281 322.847656 61.578125 322.570312 60.695312 322.207031 C 59.8125 321.839844 58.972656 321.390625 58.179688 320.859375 C 57.386719 320.332031 56.652344 319.726562 55.976562 319.050781 C 55.300781 318.375 54.695312 317.640625 54.164062 316.847656 C 53.632812 316.050781 53.1875 315.214844 52.820312 314.332031 C 52.457031 313.449219 52.179688 312.539062 51.992188 311.601562 C 51.804688 310.664062 51.714844 309.71875 51.714844 308.761719 Z M 323.3125 308.761719 C 323.3125 309.71875 323.21875 310.664062 323.035156 311.601562 C 322.847656 312.539062 322.570312 313.449219 322.207031 314.332031 C 321.839844 315.214844 321.390625 316.050781 320.859375 316.847656 C 320.332031 317.640625 319.726562 318.375 319.050781 319.050781 C 318.375 319.726562 317.640625 320.332031 316.847656 320.859375 C 316.050781 321.390625 315.214844 321.839844 314.332031 322.207031 C 313.449219 322.570312 312.539062 322.847656 311.601562 323.035156 C 310.664062 323.21875 309.71875 323.3125 308.761719 323.3125 L 260.261719 323.3125 L 260.261719 294.214844 L 323.3125 294.214844 Z M 323.3125 308.761719 " fill-opacity="1" fill-rule="nonzero"/></g><path fill="#000000" d="M 85.664062 66.261719 L 66.261719 66.261719 C 65.945312 66.261719 65.628906 66.292969 65.316406 66.355469 C 65.003906 66.417969 64.703125 66.511719 64.40625 66.632812 C 64.113281 66.753906 63.832031 66.902344 63.570312 67.082031 C 63.304688 67.257812 63.058594 67.457031 62.832031 67.683594 C 62.609375 67.910156 62.40625 68.152344 62.230469 68.417969 C 62.054688 68.683594 61.90625 68.964844 61.78125 69.257812 C 61.660156 69.550781 61.570312 69.855469 61.507812 70.167969 C 61.445312 70.480469 61.414062 70.792969 61.414062 71.113281 C 61.414062 71.433594 61.445312 71.746094 61.507812 72.058594 C 61.570312 72.371094 61.660156 72.675781 61.78125 72.96875 C 61.90625 73.261719 62.054688 73.542969 62.230469 73.808594 C 62.40625 74.074219 62.609375 74.316406 62.832031 74.542969 C 63.058594 74.769531 63.304688 74.96875 63.570312 75.144531 C 63.832031 75.324219 64.113281 75.472656 64.40625 75.59375 C 64.703125 75.714844 65.003906 75.808594 65.316406 75.871094 C 65.628906 75.933594 65.945312 75.964844 66.261719 75.964844 L 85.664062 75.964844 C 85.980469 75.964844 86.296875 75.933594 86.609375 75.871094 C 86.921875 75.808594 87.226562 75.714844 87.519531 75.59375 C 87.8125 75.472656 88.09375 75.324219 88.359375 75.144531 C 88.621094 74.96875 88.867188 74.769531 89.09375 74.542969 C 89.316406 74.316406 89.519531 74.074219 89.695312 73.808594 C 89.871094 73.542969 90.023438 73.261719 90.144531 72.96875 C 90.265625 72.675781 90.359375 72.371094 90.421875 72.058594 C 90.480469 71.746094 90.511719 71.433594 90.511719 71.113281 C 90.511719 70.792969 90.480469 70.480469 90.421875 70.167969 C 90.359375 69.855469 90.265625 69.550781 90.144531 69.257812 C 90.023438 68.964844 89.871094 68.683594 89.695312 68.417969 C 89.519531 68.152344 89.316406 67.910156 89.09375 67.683594 C 88.867188 67.457031 88.621094 67.257812 88.359375 67.082031 C 88.09375 66.902344 87.8125 66.753906 87.519531 66.632812 C 87.226562 66.511719 86.921875 66.417969 86.609375 66.355469 C 86.296875 66.292969 85.980469 66.261719 85.664062 66.261719 Z M 85.664062 66.261719 " fill-opacity="1" fill-rule="nonzero"/><path fill="#000000" d="M 129.3125 71.113281 C 129.3125 70.792969 129.28125 70.480469 129.21875 70.167969 C 129.15625 69.855469 129.066406 69.550781 128.945312 69.257812 C 128.824219 68.964844 128.671875 68.683594 128.496094 68.417969 C 128.320312 68.152344 128.117188 67.910156 127.894531 67.683594 C 127.667969 67.457031 127.421875 67.257812 127.15625 67.082031 C 126.894531 66.902344 126.613281 66.753906 126.320312 66.632812 C 126.023438 66.511719 125.722656 66.417969 125.410156 66.355469 C 125.097656 66.292969 124.78125 66.261719 124.464844 66.261719 L 105.0625 66.261719 C 104.746094 66.261719 104.429688 66.292969 104.117188 66.355469 C 103.804688 66.417969 103.5 66.511719 103.207031 66.632812 C 102.914062 66.753906 102.632812 66.902344 102.367188 67.082031 C 102.105469 67.257812 101.859375 67.457031 101.632812 67.683594 C 101.410156 67.910156 101.207031 68.152344 101.03125 68.417969 C 100.855469 68.683594 100.703125 68.964844 100.582031 69.257812 C 100.460938 69.550781 100.367188 69.855469 100.304688 70.167969 C 100.246094 70.480469 100.214844 70.792969 100.214844 71.113281 C 100.214844 71.433594 100.246094 71.746094 100.304688 72.058594 C 100.367188 72.371094 100.460938 72.675781 100.582031 72.96875 C 100.703125 73.261719 100.855469 73.542969 101.03125 73.808594 C 101.207031 74.074219 101.410156 74.316406 101.632812 74.542969 C 101.859375 74.769531 102.105469 74.96875 102.367188 75.144531 C 102.632812 75.324219 102.914062 75.472656 103.207031 75.59375 C 103.5 75.714844 103.804688 75.808594 104.117188 75.871094 C 104.429688 75.933594 104.746094 75.964844 105.0625 75.964844 L 124.464844 75.964844 C 124.78125 75.964844 125.097656 75.933594 125.410156 75.871094 C 125.722656 75.808594 126.023438 75.714844 126.320312 75.59375 C 126.613281 75.472656 126.894531 75.324219 127.15625 75.144531 C 127.421875 74.96875 127.667969 74.769531 127.894531 74.542969 C 128.117188 74.316406 128.320312 74.074219 128.496094 73.808594 C 128.671875 73.542969 128.824219 73.261719 128.945312 72.96875 C 129.066406 72.675781 129.15625 72.371094 129.21875 72.058594 C 129.28125 71.746094 129.3125 71.433594 129.3125 71.113281 Z M 129.3125 71.113281 " fill-opacity="1" fill-rule="nonzero"/><path fill="#000000" d="M 143.863281 75.964844 L 163.261719 75.964844 C 163.582031 75.964844 163.898438 75.933594 164.210938 75.871094 C 164.523438 75.808594 164.824219 75.714844 165.121094 75.59375 C 165.414062 75.472656 165.691406 75.324219 165.957031 75.144531 C 166.222656 74.96875 166.46875 74.769531 166.691406 74.542969 C 166.917969 74.316406 167.117188 74.074219 167.296875 73.808594 C 167.472656 73.542969 167.621094 73.261719 167.746094 72.96875 C 167.867188 72.675781 167.957031 72.371094 168.019531 72.058594 C 168.082031 71.746094 168.113281 71.433594 168.113281 71.113281 C 168.113281 70.792969 168.082031 70.480469 168.019531 70.167969 C 167.957031 69.855469 167.867188 69.550781 167.746094 69.257812 C 167.621094 68.964844 167.472656 68.683594 167.296875 68.417969 C 167.117188 68.152344 166.917969 67.910156 166.691406 67.683594 C 166.46875 67.457031 166.222656 67.257812 165.957031 67.082031 C 165.691406 66.902344 165.414062 66.753906 165.121094 66.632812 C 164.824219 66.511719 164.523438 66.417969 164.210938 66.355469 C 163.898438 66.292969 163.582031 66.261719 163.261719 66.261719 L 143.863281 66.261719 C 143.542969 66.261719 143.230469 66.292969 142.917969 66.355469 C 142.605469 66.417969 142.300781 66.511719 142.007812 66.632812 C 141.714844 66.753906 141.433594 66.902344 141.167969 67.082031 C 140.902344 67.257812 140.660156 67.457031 140.433594 67.683594 C 140.207031 67.910156 140.007812 68.152344 139.832031 68.417969 C 139.652344 68.683594 139.503906 68.964844 139.382812 69.257812 C 139.261719 69.550781 139.167969 69.855469 139.105469 70.167969 C 139.042969 70.480469 139.011719 70.792969 139.011719 71.113281 C 139.011719 71.433594 139.042969 71.746094 139.105469 72.058594 C 139.167969 72.371094 139.261719 72.675781 139.382812 72.96875 C 139.503906 73.261719 139.652344 73.542969 139.832031 73.808594 C 140.007812 74.074219 140.207031 74.316406 140.433594 74.542969 C 140.660156 74.769531 140.902344 74.96875 141.167969 75.144531 C 141.433594 75.324219 141.714844 75.472656 142.007812 75.59375 C 142.300781 75.714844 142.605469 75.808594 142.917969 75.871094 C 143.230469 75.933594 143.542969 75.964844 143.863281 75.964844 Z M 143.863281 75.964844 " fill-opacity="1" fill-rule="nonzero"/><g clip-path="url(#dcc8f5c5dc)"><path fill="#ffffff" d="M 191.984375 99.488281 L 324.085938 99.488281 L 324.085938 207.53125 L 191.984375 207.53125 Z M 191.984375 99.488281 " fill-opacity="1" fill-rule="nonzero"/></g><g clip-path="url(#4b8e4f50f3)"><path stroke-linecap="round" transform="matrix(2.354166, 0, 0, 2.344552, 201.900651, 98.375259)" fill="none" stroke-linejoin="round" d="M 13.399503 13.800165 L 9.800498 16.699173 C 8.400056 17.800463 7.500719 19.599847 7.500719 21.399231 L 7.500719 39.499701 C 7.500719 40.599325 8.400056 41.500683 9.500167 41.500683 L 29.499615 41.500683 " stroke="#000000" stroke-width="3" stroke-opacity="1" stroke-miterlimit="10"/></g><g clip-path="url(#2d3b266690)"><path stroke-linecap="round" transform="matrix(2.354166, 0, 0, 2.344552, 201.900651, 98.375259)" fill="none" stroke-linejoin="round" d="M 35.000168 41.500683 L 38.499616 41.500683 C 39.599726 41.500683 40.500722 40.599325 40.500722 39.499701 L 40.500722 21.399231 C 40.500722 19.599847 39.699284 17.800463 38.199284 16.699173 L 24.599725 5.999502 C 24.199836 5.699605 23.700389 5.699605 23.400057 5.999502 L 18.800499 9.599937 " stroke="#000000" stroke-width="3" stroke-opacity="1" stroke-miterlimit="10"/></g><g clip-path="url(#ed890f0d82)"><path stroke-linecap="round" transform="matrix(2.354166, 0, 0, 2.344552, 201.900651, 98.375259)" fill="none" stroke-linejoin="round" d="M 18.500167 35.699336 L 18.500167 27.500475 C 18.500167 26.900681 18.900057 26.500818 19.50072 26.500818 L 28.399504 26.500818 C 29.000168 26.500818 29.400057 26.900681 29.400057 27.500475 L 29.400057 41.500683 " stroke="#000000" stroke-width="3" stroke-opacity="1" stroke-miterlimit="10"/></g></svg>